<svg width="NaN" height="NaN" xmlns="http://www.w3.org/2000/svg" class="thumb">
 <defs>
  <linearGradient id="svg_1" y2="0.5" x2="1" y1="0.5" x1="0">
   <stop stop-color="#32c2e3" offset="0%"/>
   <stop stop-color="#00d4a2" offset="100%"/>
  </linearGradient>
  <linearGradient id="svg_3" y2="0.5" x2="1" y1="0.5" x1="0">
   <stop stop-color="#ffffff" offset="0%"/>
   <stop stop-color="#ffffff" offset="100%"/>
  </linearGradient>
  <linearGradient id="svg_5" y2="0.5" x2="1" y1="0.5" x1="0">
   <stop stop-color="#ffffff" offset="0%"/>
   <stop stop-color="#ffffff" offset="100%"/>
  </linearGradient>
  <linearGradient id="svg_7" y2="0.5" x2="1" y1="0.5" x1="0">
   <stop stop-color="#ffffff" offset="0%"/>
   <stop stop-color="#ffffff" offset="100%"/>
  </linearGradient>
  <linearGradient id="svg_9" y2="0.5" x2="1" y1="0.5" x1="0">
   <stop stop-color="#ffffff" offset="0%"/>
   <stop stop-color="#ffffff" offset="100%"/>
  </linearGradient>
 </defs>
 <g>
  <title>background</title>
  <rect fill="none" id="canvas_background" height="602" width="802" y="-1" x="-1"/>
 </g>
 <g>
  <title>Layer 1</title>
  <g id="svg_15" transform="matrix(1.0405,0,0,1.0405,-93.4855,147.4686) ">
   <g id="svg_2" transform="matrix(1.5639,0,0,1.5639,110.6566,0.5536) ">
    <svg y="6.14538" x="259.94969" id="svg_16" class="thumb" viewBox="-5.131860901213205,-5,187.0337218024264,186.77" height="186.77" width="187.03372">

     <g id="svg_17"/>
     <g id="svg_18"/>
     <g id="svg_19"/>
     <g id="svg_20">
      <circle id="svg_21" fill="url(#svg_1)" r="88.385" cy="88.385" cx="88.385"/>
     </g>
    </svg>
   </g>
   <g id="svg_4" transform="matrix(1.6154,0,0,1.6154,231.9617,93.1536) ">
    <svg y="5.94946" x="251.66233" id="svg_22" viewBox="32.07799999999999,14.409499999999998,68.22987505756636,84.90586679291667" height="84.90587" width="68.22988">

     <g id="svg_23"/>
     <g id="svg_24"/>
     <g id="svg_25">
      <path id="svg_26" fill="url(#svg_3)" d="m89.813,25.2l-0.296,-0.296c-7.326,-7.326 -19.313,-7.326 -26.639,0l-16.094,16.094l0,6.39l0.789,-0.789l0.004,0.004c4.871,-4.871 8.984,-8.984 12.131,-12.131l4.66,-4.66c5.692,-5.692 14.508,-6.457 21.053,-2.315c-6.398,-2.086 -13.73,-0.615 -18.792,4.447l-5.07,5.069c-3.083,3.083 -7.02,7.02 -11.787,11.787l18.344,18.344l-18.5,18.5c-2.186,2.186 -4.909,3.502 -7.747,3.977c-1.369,1.734 -2.983,3.264 -4.791,4.54c5.597,0.714 11.457,-1.047 15.732,-5.322l37,-37c7.33,-7.326 7.33,-19.314 0.003,-26.639zm-4.588,1.909c0.378,0.309 0.745,0.638 1.097,0.99l0.015,0.015c-0.357,-0.357 -0.732,-0.686 -1.112,-1.005zm1.379,1.271l0.015,0.015c0.353,0.353 0.682,0.719 0.99,1.097c-0.319,-0.38 -0.648,-0.754 -1.005,-1.112z"/>
     </g>
    </svg>
   </g>
   <g id="svg_6" transform="matrix(1.6154,0,0,1.6154,243.2695,169.5768) ">
    <svg y="5.94946" x="251.66233" id="svg_27" viewBox="39.28,61.745000000000005,28.599999999999994,29.127999999999986" height="29.128" width="28.6">

     <g id="svg_28"/>
     <g id="svg_29"/>
     <g id="svg_30">
      <path id="svg_31" fill="url(#svg_5)" d="m48.418,83.024l3.857,-3.857c2.728,-2.727 6.322,-6.322 10.605,-10.604l-1.818,-1.818c-4.205,4.205 -7.646,7.646 -10.32,10.32l-4.196,4.196c-0.221,0.221 -0.45,0.429 -0.681,0.633c-0.405,1.385 -0.938,2.715 -1.585,3.979c1.502,-0.675 2.909,-1.62 4.138,-2.849z"/>
     </g>
    </svg>
   </g>
   <g id="svg_8" transform="matrix(1.6154,0,0,1.6154,179.1156,69.2305) ">
    <svg y="5.94946" x="251.66233" id="svg_32" viewBox="-0.30799999999999983,-0.6669999999999998,48.092,100.00000000000001" height="100" width="48.092">

     <g id="svg_33"/>
     <g id="svg_34"/>
     <g id="svg_35">
      <path id="svg_36" fill="url(#svg_7)" d="m23.947,4.333l-0.418,0c-10.36,0 -18.837,8.477 -18.837,18.837l0,52.326c0,10.36 8.477,18.837 18.837,18.837l0.418,0c10.36,0 18.837,-8.477 18.837,-18.837l0,-52.326c0,-10.36 -8.476,-18.837 -18.837,-18.837zm0,4.52c0.499,0 0.991,0.026 1.476,0.076c-0.494,-0.043 -0.992,-0.076 -1.497,-0.076l0.021,0zm-0.418,0l0.021,0c-0.505,0 -1.003,0.032 -1.497,0.076c0.485,-0.05 0.977,-0.076 1.476,-0.076zm14.737,66.644c0,7.895 -6.423,14.318 -14.318,14.318l-0.418,0c-7.896,0 -14.318,-6.423 -14.318,-14.318l0,-26.164l0.006,0c0,-6.889 0,-12.705 0,-17.156l0,-6.59c0,-8.05 5.693,-14.824 13.25,-16.524c-6,3.05 -10.144,9.274 -10.144,16.432l0,7.169c0,4.36 0,9.928 0,16.669l25.942,0l0,26.164z"/>
     </g>
    </svg>
   </g>
   <g id="svg_10" transform="matrix(1.6154,0,0,1.6154,212.7311,149.4614) ">
    <svg y="5.94946" x="251.66233" id="svg_37" viewBox="19.598,49.04,20.967,44.129" height="44.129" width="20.967">

     <g id="svg_38"/>
     <g id="svg_39"/>
     <g id="svg_40">
      <path id="svg_41" fill="url(#svg_9)" d="m32.994,68.635l0,5.934c0,5.925 -3.43,11.076 -8.396,13.6c6.254,-1.406 10.967,-7.013 10.967,-13.676l0,-5.455c0,-3.857 0,-8.94 0,-14.998l-2.571,0c0,5.946 0,10.813 0,14.595z"/>
     </g>
    </svg>
   </g>
  </g>
 </g>
</svg>