<svg class="thumb" width="1000" height="1000" viewBox="0,0,600,600" xmlns="http://www.w3.org/2000/svg" xmlns:inkscape="http://www.inkscape.org/namespaces/inkscape" xmlns:sodipodi="http://sodipodi.sourceforge.net/DTD/sodipodi-0.dtd" xmlns:xlink="http://www.w3.org/1999/xlink" xmlns:ns1="http://www.inkscape.org/namespaces/inkscape" xmlns:sketch="http://www.bohemiancoding.com/sketch/ns">
  <defs></defs>
  <g transform="matrix(1.0405,0,0,1.0405,-93.4855,147.4686)">
    <g transform="matrix(1.5639,0,0,1.5639,110.6566,0.5536)">
      <svg width="187.0337218024264" height="186.77" viewBox="-5.131860901213205,-5,187.0337218024264,186.77" class="thumb">
        <defs>
          <linearGradient x1="0" y1="0.5" x2="1" y2="0.5" id="linearGradientSkgd0wgwh4">
            <stop offset="0%" stop-color="#32c2e3"></stop>
            <stop offset="100%" stop-color="#00d4a2"></stop>
          </linearGradient>
        </defs>
        <g></g>
        <g></g>
        <g></g>
        <g>
          <circle cx="88.385" cy="88.385" r="88.385" fill="url('#linearGradientSkgd0wgwh4')" style="" stroke="none"></circle>
        </g>
      </svg>
    </g>
    <g transform="matrix(1.6154,0,0,1.6154,231.9617,93.1536)">
      <svg width="68.22987505756636" height="84.90586679291667" viewBox="32.07799999999999,14.409499999999998,68.22987505756636,84.90586679291667">
        <defs>
          <linearGradient x1="0" y1="0.5" x2="1" y2="0.5" id="linearGradientSkgd0wgwha">
            <stop offset="0%" stop-color="#ffffff"></stop>
            <stop offset="100%" stop-color="#ffffff"></stop>
          </linearGradient>
        </defs>
        <g></g>
        <g></g>
        <g>
          <path d="M89.813,25.2l-0.296-0.296c-7.326-7.326-19.313-7.326-26.639,0L46.784,40.998v6.39l0.789-0.789l0.004,0.004   c4.871-4.871,8.984-8.984,12.131-12.131l4.66-4.66c5.692-5.692,14.508-6.457,21.053-2.315c-6.398-2.086-13.73-0.615-18.792,4.447   l-5.07,5.069c-3.083,3.083-7.02,7.02-11.787,11.787l18.344,18.344l-18.5,18.5c-2.186,2.186-4.909,3.502-7.747,3.977   c-1.369,1.734-2.983,3.264-4.791,4.54c5.597,0.714,11.457-1.047,15.732-5.322l37-37C97.14,44.513,97.14,32.525,89.813,25.2z    M85.225,27.109c0.378,0.309,0.745,0.638,1.097,0.99l0.015,0.015C85.98,27.757,85.605,27.428,85.225,27.109z M86.604,28.38   l0.015,0.015c0.353,0.353,0.682,0.719,0.99,1.097C87.29,29.112,86.961,28.738,86.604,28.38z" fill="url('#linearGradientSkgd0wgwha')" style="" stroke="none"></path>
        </g>
      </svg>
    </g>
    <g transform="matrix(1.6154,0,0,1.6154,243.2695,169.5768)">
      <svg width="28.599999999999994" height="29.127999999999986" viewBox="39.28,61.745000000000005,28.599999999999994,29.127999999999986">
        <defs>
          <linearGradient x1="0" y1="0.5" x2="1" y2="0.5" id="linearGradientSkgd0wgwhg">
            <stop offset="0%" stop-color="#ffffff"></stop>
            <stop offset="100%" stop-color="#ffffff"></stop>
          </linearGradient>
        </defs>
        <g></g>
        <g></g>
        <g>
          <path d="M48.418,83.024l3.857-3.857c2.728-2.727,6.322-6.322,10.605-10.604l-1.818-1.818c-4.205,4.205-7.646,7.646-10.32,10.32   l-4.196,4.196c-0.221,0.221-0.45,0.429-0.681,0.633c-0.405,1.385-0.938,2.715-1.585,3.979   C45.782,85.198,47.189,84.253,48.418,83.024z" fill="url('#linearGradientSkgd0wgwhg')" style="" stroke="none"></path>
        </g>
      </svg>
    </g>
    <g transform="matrix(1.6154,0,0,1.6154,179.1156,69.2305)">
      <svg width="48.092" height="100.00000000000001" viewBox="-0.30799999999999983,-0.6669999999999998,48.092,100.00000000000001">
        <defs>
          <linearGradient x1="0" y1="0.5" x2="1" y2="0.5" id="linearGradientSkgd0wgwhm">
            <stop offset="0%" stop-color="#ffffff"></stop>
            <stop offset="100%" stop-color="#ffffff"></stop>
          </linearGradient>
        </defs>
        <g></g>
        <g></g>
        <g>
          <path d="M23.947,4.333h-0.418c-10.36,0-18.837,8.477-18.837,18.837v52.326c0,10.36,8.477,18.837,18.837,18.837h0.418  c10.36,0,18.837-8.477,18.837-18.837V23.17C42.784,12.81,34.308,4.333,23.947,4.333z M23.947,8.853c0.499,0,0.991,0.026,1.476,0.076  c-0.494-0.043-0.992-0.076-1.497-0.076H23.947z M23.529,8.853h0.021c-0.505,0-1.003,0.032-1.497,0.076  C22.538,8.879,23.03,8.853,23.529,8.853z M38.266,75.497c0,7.895-6.423,14.318-14.318,14.318h-0.418  c-7.896,0-14.318-6.423-14.318-14.318V49.333h0.006c0-6.889,0-12.705,0-17.156v-6.59c0-8.05,5.693-14.824,13.25-16.524  c-6,3.05-10.144,9.274-10.144,16.432v7.169c0,4.36,0,9.928,0,16.669h25.942V75.497z" fill="url('#linearGradientSkgd0wgwhm')" style="" stroke="none"></path>
        </g>
      </svg>
    </g>
    <g transform="matrix(1.6154,0,0,1.6154,212.7311,149.4614)">
      <svg width="20.967" height="44.129" viewBox="19.598,49.04,20.967,44.129">
        <defs>
          <linearGradient x1="0" y1="0.5" x2="1" y2="0.5" id="linearGradientSkgd0wgwhs">
            <stop offset="0%" stop-color="#ffffff"></stop>
            <stop offset="100%" stop-color="#ffffff"></stop>
          </linearGradient>
        </defs>
        <g></g>
        <g></g>
        <g>
          <path d="M32.994,68.635v5.934c0,5.925-3.43,11.076-8.396,13.6c6.254-1.406,10.967-7.013,10.967-13.676v-5.455  c0-3.857,0-8.94,0-14.998h-2.571C32.994,59.986,32.994,64.853,32.994,68.635z" fill="url('#linearGradientSkgd0wgwhs')" style="" stroke="none"></path>
        </g>
      </svg>
    </g>
    <g transform="matrix(1.2209,0,0,1.2209,393.551,30.2893)">
      <svg width="114.2578125" height="185" style="overflow: visible;">
        <defs>
          <linearGradient x1="0" y1="0.5" x2="1" y2="0.5" id="linearGradientSkgd0wgwh14">
            <stop offset="0%" stop-color="#000000"></stop>
            <stop offset="100%" stop-color="#000000"></stop>
          </linearGradient>
        </defs>
        <g transform="matrix(1,0,0,1,0,93.75)">
          <path d="M 7.13 0L 7.13-83.4L 23.63-83.4L 31.64-51.12Q 32.91-45.75  33.64-40.89Q 34.38-36.04  35.06-31.74L 35.06-31.74L 35.45-31.74Q 36.13-36.04  36.87-40.89Q 37.6-45.75  38.87-51.12L 38.87-51.12L 47.12-83.4L 63.28-83.4L 63.28 0L 51.46 0L 51.46-27.59Q 51.46-33.94  51.59-39.79Q 51.71-45.65  51.9-50.56Q 52.1-55.47  52.34-59.23Q 52.59-62.99  52.78-65.19L 52.78-65.19L 51.86-65.19L 39.26-10.74L 31.25-10.74L 18.55-65.19L 17.63-65.19Q 17.82-62.99  18.07-59.23Q 18.31-55.47  18.51-50.56Q 18.7-45.65  18.82-39.79Q 18.95-33.94  18.95-27.59L 18.95-27.59L 18.95 0L 7.13 0ZM 74.22015625 12.94L 74.22015625 12.94Q 77.00015625 13.33  79.35015625 12.77Q 81.69015625 12.21  83.37015625000001 10.64Q 85.06015625 9.08  86.06015625 6.52Q 87.06015625 3.96  87.21015625 0.39L 87.21015625 0.39L 71.29015625-67.24L 83.84015625-67.24L 90.92015625-30.03L 92.97015625-17.19L 93.36015625-17.19L 94.78015625-30.03L 100.49015625-67.24L 112.65015625000001-67.24L 98.49015625 2.49Q 97.56015625 7.32  96.12015625000001 10.94Q 94.68015625 14.55  92.55015625 16.94Q 90.43015625 19.34  87.50015625 20.53Q 84.57015625 21.73  80.66015625 21.73L 80.66015625 21.73Q 77.49015625 21.73  74.17015625 20.51L 74.17015625 20.51L 74.22015625 12.94Z" data-textpath="My" data-text-anchor="middle" data-font-size="100" data-letterspacing="0" data-side="left" data-offset="0.5" data-dx="0" data-dy="0" data-xmlspace="preserve" data-href="" data-font="Fjalla One" data-font-src="/Content/clientfonts/fjallaone.woff" data-font-scale="contain" transform="translate(0,0)" data-x="0" data-y="0" fill="url('#linearGradientSkgd0wgwh14')"></path>
        </g>
      </svg>
    </g>
    <g transform="matrix(1.2209,0,0,1.2209,392.5433,147.2893)">
      <svg width="204.150390625" height="185" style="overflow: visible;">
        <defs>
          <linearGradient x1="0" y1="0.5" x2="1" y2="0.5" id="linearGradientSkgd0wgwh17">
            <stop offset="0%" stop-color="#000000"></stop>
            <stop offset="100%" stop-color="#000000"></stop>
          </linearGradient>
        </defs>
        <g transform="matrix(1,0,0,1,0,93.75)">
          <path d="M 7.13 0L 7.13-83.4L 23.63-83.4L 31.64-51.12Q 32.91-45.75  33.64-40.89Q 34.38-36.04  35.06-31.74L 35.06-31.74L 35.45-31.74Q 36.13-36.04  36.87-40.89Q 37.6-45.75  38.87-51.12L 38.87-51.12L 47.12-83.4L 63.28-83.4L 63.28 0L 51.46 0L 51.46-27.59Q 51.46-33.94  51.59-39.79Q 51.71-45.65  51.9-50.56Q 52.1-55.47  52.34-59.23Q 52.59-62.99  52.78-65.19L 52.78-65.19L 51.86-65.19L 39.26-10.74L 31.25-10.74L 18.55-65.19L 17.63-65.19Q 17.82-62.99  18.07-59.23Q 18.31-55.47  18.51-50.56Q 18.7-45.65  18.82-39.79Q 18.95-33.94  18.95-27.59L 18.95-27.59L 18.95 0L 7.13 0ZM 92.97015624999999 0.73L 92.97015624999999 0.73Q 88.62015624999998 0.73  85.28015624999999-0.88Q 81.93015624999998-2.49  79.64015624999999-5.91Q 77.34015624999998-9.33  76.17015624999999-14.67Q 75.00015624999999-20.02  75.00015624999999-27.54L 75.00015624999999-27.54L 75.00015624999999-40.23Q 75.00015624999999-46.63  75.95015624999999-51.2Q 76.90015624999998-55.76  78.44015624999999-58.86Q 79.98015625-61.96  82.01015624999998-63.77Q 84.03015624999999-65.58  86.18015624999998-66.53Q 88.33015624999999-67.48  90.45015624999999-67.75Q 92.58015624999999-68.02  94.38015624999998-68.02L 94.38015624999998-68.02Q 97.70015624999999-68.02  100.78015624999999-67.02Q 103.86015624999999-66.02  106.20015624999999-63.6Q 108.54015625-61.18  109.94015624999999-57.13Q 111.33015624999999-53.08  111.33015624999999-47.02L 111.33015624999999-47.02Q 111.33015624999999-44.97  111.21015624999998-42.87Q 111.08015624999999-40.77  110.89015624999999-38.75Q 110.69015624999999-36.72  110.38015624999998-34.81Q 110.06015624999998-32.91  109.72015624999999-31.3L 109.72015624999999-31.3L 87.40015624999998-31.3L 87.40015624999998-24.46Q 87.40015624999998-20.07  87.74015624999998-17.07Q 88.09015624999998-14.06  88.89015624999999-12.23Q 89.70015624999999-10.4  91.09015624999998-9.59Q 92.48015625-8.79  94.58015624999999-8.79L 94.58015624999999-8.79Q 95.70015624999999-8.79  96.78015624999999-9.25Q 97.85015624999998-9.72  98.66015624999999-10.79Q 99.46015624999998-11.87  99.95015624999999-13.65Q 100.44015624999999-15.43  100.44015624999999-18.07L 100.44015624999999-18.07L 100.44015624999999-20.17L 110.74015624999998-20.17L 110.74015624999998-17.58Q 110.74015624999998-8.01  106.18015624999998-3.64Q 101.61015624999999 0.73  92.97015624999999 0.73ZM 87.40015624999998-39.6L 99.80015624999999-39.6Q 99.85015624999998-40.14  99.90015624999998-41.04Q 99.95015624999999-41.94  99.98015625-42.92Q 100.00015624999999-43.9  100.00015624999999-44.85Q 100.00015624999999-45.8  100.00015624999999-46.48L 100.00015624999999-46.48Q 100.00015624999999-53.13  98.44015624999999-56.05Q 96.87015624999998-58.98  93.80015624999999-58.98L 93.80015624999999-58.98Q 92.19015624999999-58.98  90.97015624999999-58.23Q 89.75015624999999-57.47  88.96015624999998-55.69Q 88.18015624999998-53.91  87.79015624999998-50.98Q 87.40015624999998-48.05  87.40015624999998-43.7L 87.40015624999998-43.7L 87.40015624999998-39.6ZM 134.6696875 0.78L 134.6696875 0.78Q 133.5496875 0.78  132.0296875 0.56Q 130.5196875 0.34  128.9096875-0.44Q 127.2996875-1.22  125.7296875-2.78Q 124.1696875-4.35  122.9496875-7.06Q 121.7296875-9.77  120.9696875-13.77Q 120.2196875-17.77  120.2196875-23.49L 120.2196875-23.49L 120.2196875-44.82Q 120.2196875-50.49  121.0196875-54.39Q 121.8296875-58.3  123.1396875-60.86Q 124.4596875-63.43  126.0996875-64.87Q 127.7296875-66.31  129.3696875-66.99Q 131.0096875-67.68  132.4996875-67.82Q 133.9796875-67.97  134.9596875-67.97L 134.9596875-67.97Q 136.7696875-67.97  138.3796875-67.48Q 139.9896875-66.99  141.3096875-66.19Q 142.6296875-65.38  143.6496875-64.38Q 144.6796875-63.38  145.3596875-62.35L 145.3596875-62.35L 145.4096875-62.4L 145.0196875-70.9L 145.0196875-88.82L 157.3196875-88.82L 157.3196875 0L 147.7096875 0L 146.6296875-6.25Q 145.7996875-4.93  144.7296875-3.66Q 143.6496875-2.39  142.1896875-1.39Q 140.7196875-0.39  138.8696875 0.2Q 137.00968749999998 0.78  134.6696875 0.78ZM 138.8696875-8.79L 138.8696875-8.79Q 140.0896875-8.79  141.0396875-9.2Q 141.9896875-9.62  142.7496875-10.28Q 143.50968749999998-10.94  144.0696875-11.82Q 144.6296875-12.7  145.0196875-13.62L 145.0196875-13.62L 145.0196875-54.05Q 144.0896875-56.1  142.5496875-57.54Q 141.0196875-58.98  138.8196875-58.98L 138.8196875-58.98Q 137.4496875-58.98  136.3296875-58.5Q 135.2096875-58.01  134.3796875-56.67Q 133.5496875-55.32  133.0796875-52.95Q 132.6196875-50.59  132.6196875-46.83L 132.6196875-46.83L 132.6196875-21.04Q 132.6196875-17.29  133.0796875-14.89Q 133.5496875-12.5  134.3796875-11.16Q 135.2096875-9.81  136.34968750000002-9.3Q 137.4996875-8.79  138.8696875-8.79ZM 167.381875-14.06L 167.381875-14.06Q 167.381875-16.26  167.801875-18.31Q 168.211875-20.36  168.601875-21.58L 168.601875-21.58L 177.291875-21.58Q 177.291875-17.92  177.661875-15.45Q 178.031875-12.99  178.861875-11.52Q 179.691875-10.06  181.081875-9.42Q 182.471875-8.79  184.471875-8.79L 184.471875-8.79Q 187.25187499999998-8.79  188.521875-10.35Q 189.791875-11.91  189.791875-13.96L 189.791875-13.96Q 189.791875-15.04  189.50187499999998-16.02Q 189.211875-16.99  188.671875-17.99Q 188.131875-18.99  187.351875-20.02Q 186.571875-21.04  185.59187500000002-22.27L 185.59187500000002-22.27L 176.561875-32.91Q 174.801875-35.11  173.171875-37.38Q 171.531875-39.65  170.291875-42.07Q 169.041875-44.48  168.281875-47.12Q 167.531875-49.76  167.531875-52.69L 167.531875-52.69Q 167.531875-56.59  168.871875-59.47Q 170.211875-62.35  172.481875-64.26Q 174.751875-66.16  177.731875-67.09Q 180.711875-68.02  184.031875-68.02L 184.031875-68.02Q 187.691875-68.02  190.621875-67.14Q 193.551875-66.26  195.651875-64.5Q 197.75187499999998-62.74  198.881875-60.13Q 200.00187499999998-57.52  200.00187499999998-54.05L 200.00187499999998-54.05Q 200.00187499999998-51.71  199.581875-49.51Q 199.171875-47.31  198.781875-45.75L 198.781875-45.75L 190.231875-45.75Q 190.181875-49.07  189.941875-51.56Q 189.701875-54.05  189.041875-55.69Q 188.381875-57.32  187.231875-58.15Q 186.081875-58.98  184.231875-58.98L 184.231875-58.98Q 182.621875-58.98  181.541875-58.47Q 180.471875-57.96  179.811875-57.13Q 179.151875-56.3  178.881875-55.27Q 178.611875-54.25  178.611875-53.17L 178.611875-53.17Q 178.611875-50.83  179.731875-48.83Q 180.861875-46.83  182.711875-44.48L 182.711875-44.48L 192.581875-32.91Q 193.651875-31.59  195.071875-29.71Q 196.481875-27.83  197.75187499999998-25.56Q 199.021875-23.29  199.901875-20.61Q 200.781875-17.92  200.781875-14.99L 200.781875-14.99Q 200.781875-11.43  199.661875-8.52Q 198.531875-5.62  196.34187500000002-3.56Q 194.141875-1.51  190.941875-0.39Q 187.741875 0.73  183.641875 0.73L 183.641875 0.73Q 180.271875 0.73  177.291875-0.02Q 174.311875-0.78  172.121875-2.51Q 169.921875-4.25  168.651875-7.08Q 167.381875-9.91  167.381875-14.06Z" data-textpath="Meds" data-text-anchor="middle" data-font-size="100" data-letterspacing="0" data-side="left" data-offset="0.5" data-dx="0" data-dy="0" data-xmlspace="preserve" data-href="" data-font="Fjalla One" data-font-src="/Content/clientfonts/fjallaone.woff" data-font-scale="contain" transform="translate(0,0)" data-x="0" data-y="0" fill="url('#linearGradientSkgd0wgwh17')"></path>
        </g>
      </svg>
    </g>
  </g>
</svg>